<?xml version="1.0" standalone="no"?>
<!DOCTYPE svg PUBLIC "-//W3C//DTD SVG 20010904//EN"
 "http://www.w3.org/TR/2001/REC-SVG-20010904/DTD/svg10.dtd">
<svg version="1.0" xmlns="http://www.w3.org/2000/svg"
 width="669.000000pt" height="340.000000pt" viewBox="0 0 669.000000 340.000000"
 preserveAspectRatio="xMidYMid meet">

<g transform="translate(0.000000,340.000000) scale(0.100000,-0.100000)"
fill="#000000" stroke="none">
<path d="M1173 2110 c0 -47 2 -66 4 -42 2 23 2 61 0 85 -2 23 -4 4 -4 -43z"/>
<path d="M960 2092 c0 -45 1 -82 3 -82 1 0 20 7 42 15 22 8 59 14 83 15 l42 0
0 45 c0 49 -4 51 -88 46 -24 -2 -41 4 -58 20 l-24 22 0 -81z"/>
<path d="M1210 2093 l0 -78 38 -27 c54 -38 94 -115 90 -175 -3 -45 -5 -47 -44
-60 -22 -7 -55 -29 -73 -47 l-33 -34 32 -22 31 -22 22 20 c49 46 108 53 173
21 108 -52 113 -187 11 -263 -26 -19 -42 -21 -163 -21 l-134 0 0 -36 0 -36
120 -6 c151 -8 206 6 266 67 96 95 91 245 -10 334 -20 17 -35 37 -34 43 2 7
-12 17 -29 22 -27 8 -33 15 -33 37 0 15 -3 41 -6 57 -5 24 -1 31 19 42 l25 13
-36 62 c-20 33 -37 63 -39 65 -2 2 -15 -1 -30 -8 -24 -11 -29 -9 -65 26 -31
30 -37 43 -33 64 5 22 2 28 -17 33 -47 12 -48 10 -48 -71z"/>
<path d="M910 1797 c0 -70 16 -109 42 -102 65 18 61 11 32 65 -15 27 -37 59
-50 71 l-24 22 0 -56z"/>
<path d="M4540 1650 l0 -160 35 0 35 0 0 70 0 70 50 0 c43 0 50 3 50 20 0 17
-7 20 -50 20 l-50 0 0 45 0 45 65 0 c63 0 65 1 65 25 l0 25 -100 0 -100 0 0
-160z"/>
<path d="M5400 1775 c0 -24 -5 -35 -15 -35 -9 0 -15 -9 -15 -25 0 -16 6 -25
15 -25 12 0 15 -14 15 -69 0 -95 10 -117 59 -132 49 -15 71 -7 71 26 0 21 -5
25 -30 25 l-30 0 0 75 0 75 30 0 c25 0 30 4 30 25 0 21 -5 25 -30 25 -28 0
-30 3 -30 35 0 33 -2 35 -35 35 -33 0 -35 -2 -35 -35z"/>
<path d="M5690 1790 c0 -12 -9 -24 -21 -28 -18 -7 -15 -11 29 -35 27 -15 52
-27 55 -27 2 0 -3 25 -12 55 -11 39 -21 55 -33 55 -11 0 -18 -8 -18 -20z"/>
<path d="M5801 1761 c-8 -5 -21 -7 -29 -4 -11 5 -13 0 -7 -28 4 -19 12 -45 17
-59 10 -24 10 -24 35 23 31 61 23 93 -16 68z"/>
<path d="M5585 1750 c-3 -5 -1 -18 5 -29 5 -11 7 -26 4 -35 -6 -14 8 -12 100
17 11 3 -77 57 -93 57 -5 0 -13 -4 -16 -10z"/>
<path d="M4214 1739 c-52 -15 -77 -51 -82 -119 -4 -57 -3 -61 30 -94 45 -45
94 -55 144 -30 21 11 44 29 52 42 14 21 13 22 -21 22 -19 0 -40 -7 -47 -15
-26 -32 -100 -2 -100 40 0 12 17 15 95 15 l95 0 0 28 c0 32 -31 87 -57 100
-30 16 -76 21 -109 11z m69 -50 c22 -12 37 -28 37 -41 0 -5 -29 -8 -65 -8 -69
0 -78 7 -45 40 23 23 42 25 73 9z"/>
<path d="M4843 1735 c-40 -17 -63 -61 -63 -120 0 -58 21 -100 62 -121 36 -19
91 -13 119 12 18 16 19 16 19 1 0 -12 9 -17 30 -17 l30 0 0 125 0 125 -30 0
c-19 0 -30 -5 -30 -14 0 -11 -8 -10 -37 5 -44 22 -57 23 -100 4z m116 -71 c12
-15 21 -37 21 -49 0 -34 -37 -75 -68 -75 -62 0 -94 80 -50 127 29 31 71 30 97
-3z"/>
<path d="M5163 1735 c-58 -25 -86 -100 -63 -169 20 -61 91 -98 156 -82 28 7
84 57 84 75 0 17 -66 13 -80 -4 -17 -21 -63 -19 -83 3 -23 26 -22 94 1 115 23
21 65 22 82 2 13 -15 80 -21 80 -7 0 19 -35 55 -66 68 -41 17 -70 17 -111 -1z"/>
<path d="M6020 1743 c-8 -3 -23 -12 -32 -21 -16 -14 -18 -13 -18 1 0 12 -9 17
-30 17 l-30 0 0 -130 0 -130 30 0 30 0 0 80 c0 67 3 83 20 100 11 11 29 20 40
20 16 0 20 7 20 35 0 35 -3 38 -30 28z"/>
<path d="M3950 1615 l0 -125 30 0 30 0 0 68 c0 81 15 116 53 120 23 3 27 8 27
33 0 22 -5 29 -19 29 -10 0 -24 -7 -31 -15 -7 -8 -16 -15 -21 -15 -5 0 -9 7
-9 15 0 10 -10 15 -30 15 l-30 0 0 -125z"/>
<path d="M6089 1693 c11 -27 33 -83 51 -125 l32 -75 -26 -61 c-14 -34 -26 -64
-26 -67 0 -3 15 -5 33 -5 l32 0 73 175 c40 96 75 182 78 190 5 12 -2 15 -28
15 -32 0 -35 -3 -53 -52 -10 -29 -25 -69 -33 -88 l-15 -35 -32 85 c-32 84 -33
85 -69 88 l-36 3 19 -48z"/>
<path d="M5807 1645 l-28 -57 23 7 c87 27 108 48 64 65 -13 5 -26 16 -28 25
-2 10 -14 -6 -31 -40z"/>
<path d="M5588 1657 c-42 -12 -53 -45 -19 -54 11 -3 21 -12 23 -22 3 -11 13
-1 31 30 39 65 38 66 -35 46z"/>
<path d="M5618 1566 c-22 -45 -25 -56 -13 -66 10 -8 15 -8 20 0 4 7 18 9 31 6
l23 -6 -15 52 c-8 29 -16 57 -17 61 -1 4 -14 -17 -29 -47z"/>
<path d="M5776 1573 l-50 -15 54 -29 c41 -22 56 -26 62 -17 4 7 6 19 3 26 -3
8 -5 22 -5 33 0 22 0 22 -64 2z"/>
<path d="M5680 1561 c0 -30 33 -111 45 -111 8 0 15 7 15 15 0 8 9 22 19 32 19
18 19 19 -30 45 -27 14 -49 23 -49 19z"/>
<path d="M910 1350 l0 -40 85 0 85 0 0 40 0 40 -85 0 -85 0 0 -40z"/>
</g>
</svg>
